<svg xmlns="http://www.w3.org/2000/svg" viewBox="0 0 120 120" fill="none">
  <defs>
    <linearGradient id="a" x1="0%" y1="0%" x2="100%" y2="100%">
      <stop offset="0%" stop-color="#ff4d4d"/>
      <stop offset="100%" stop-color="#991b1b"/>
    </linearGradient>
  </defs>
  <path d="M60 10C30 10 15 35 15 55c0 20 15 40 30 45v10h10v-10s5 2 10 0v10h10v-10c15-5 30-25 30-45 0-20-15-45-45-45Z" fill="url(#a)"/>
  <path d="M20 45C5 40 0 50 5 60s15 5 20-5c3-7 0-10-5-10Z" fill="url(#a)"/>
  <path d="M100 45c15-5 20 5 15 15s-15 5-20-5c-3-7 0-10 5-10Z" fill="url(#a)"/>
  <path d="M45 15Q35 5 30 8M75 15Q85 5 90 8" stroke="#ff4d4d" stroke-width="3" stroke-linecap="round"/>
  <circle cx="45" cy="35" r="6" fill="#050810"/>
  <circle cx="75" cy="35" r="6" fill="#050810"/>
  <circle cx="46" cy="34" r="2.5" fill="#00e5cc"/>
  <circle cx="76" cy="34" r="2.5" fill="#00e5cc"/>
</svg>
